<?xml version="1.0" encoding="UTF-8"?><svg id="Logos" xmlns="http://www.w3.org/2000/svg" width="1107" height="250" viewBox="0 0 1107 250"><defs><style>.cls-1{fill:#fff;}.cls-2{fill:#b2b2b2;}.cls-3{fill:#017ed7;}</style></defs><g><path class="cls-2" d="M320.009,99.228v-28.137c0-4.98-.999-8.466-3.498-11.454-1.249-1.245-3.248-1.992-5.497-1.992-4.747,0-6.996,3.486-7.995,6.723-.75,1.992-.999,4.233-.999,6.723v110.059c0,5.229,1.249,8.715,3.748,11.454,1.249,1.245,2.998,1.992,5.247,1.992,4.747,0,6.996-2.988,7.995-6.723,.75-1.743,.999-3.984,.999-6.723v-33.117h-10.743v-22.659h37.726v91.134h-15.99l-3.248-8.715c-4.997,6.225-12.242,10.707-20.987,10.707s-14.741-2.241-19.238-6.225c-4.497-3.735-7.495-8.466-9.494-13.446-2.249-5.727-3.248-12.45-2.998-19.92V71.091c.25-7.221,1.749-13.944,4.497-19.671,2.249-4.98,5.497-9.96,10.493-13.695,4.997-3.735,11.992-6.225,20.987-6.225s15.74,2.49,20.737,6.225,8.495,8.715,10.743,13.695c2.748,5.727,4.247,12.45,4.497,19.671v28.137h-26.983Z"/><path class="cls-2" d="M359.23,216.508l27.733-183.016h32.979l27.733,183.016h-26.233l-4.997-37.35h-25.984l-4.997,37.35h-26.233Zm45.721-123.505l-.75-4.731h-1.499l-.75,4.731-7.745,57.768h18.488l-7.745-57.768Z"/><path class="cls-2" d="M504.887,216.508l-17.239-115.039-.999-7.719h-1.499v122.758h-24.984V33.492h32.979l15.99,83.664,1.249,9.711h.5l1.249-9.711,15.99-83.664h32.979V216.508h-24.984V93.75h-1.499l-.999,7.719-17.239,115.039h-11.493Z"/><path class="cls-2" d="M625.809,216.508l-17.239-115.039-.999-7.719h-1.499v122.758h-24.984V33.492h32.979l15.99,83.664,1.249,9.711h.5l1.249-9.711,15.99-83.664h32.979V216.508h-24.984V93.75h-1.499l-.999,7.719-17.239,115.039h-11.493Z"/><path class="cls-2" d="M694.514,216.508l27.733-183.016h32.979l27.733,183.016h-26.233l-4.997-37.35h-25.984l-4.997,37.35h-26.233Zm45.721-123.505l-.75-4.731h-1.499l-.75,4.731-7.745,57.768h18.488l-7.745-57.768Z"/><path class="cls-3" d="M780.461,61.131v-27.639h77.951v27.639h-25.484V216.508h-26.983V61.131h-25.484Z"/><path class="cls-3" d="M868.904,33.492h61.711v27.639h-34.728v48.057h24.984v29.382h-24.984v50.298h34.728v27.639h-61.711V33.492Z"/><path class="cls-3" d="M1015.809,153.76v25.149c-.25,7.47-1.749,14.193-4.497,19.92-2.249,4.98-5.746,9.711-10.743,13.446-4.997,3.984-11.743,6.225-20.737,6.225s-15.99-2.241-20.987-6.225c-4.997-3.735-8.245-8.466-10.493-13.446-2.748-5.727-4.247-12.45-4.497-19.92V71.091c.25-7.221,1.749-13.944,4.497-19.671,2.249-4.98,5.497-9.96,10.493-13.695s11.992-6.225,20.987-6.225,15.74,2.49,20.737,6.225,8.495,8.715,10.743,13.695c2.748,5.727,4.247,12.45,4.497,19.671v25.149h-25.234v-25.149c0-4.98-1.249-8.466-3.997-11.454-1.249-1.245-3.498-1.992-6.246-1.992-4.747,0-6.996,3.486-8.245,6.723-.75,1.992-.999,4.233-1.249,6.723v107.818c.25,5.229,1.749,8.715,4.247,11.454,1.249,1.245,2.998,1.992,5.247,1.992,5.746,0,7.995-2.988,9.244-6.723,.75-1.743,.999-3.984,.999-6.723v-25.149h25.234Z"/><path class="cls-3" d="M1080.017,136.828h-20.987v79.68h-26.983V33.492h26.983V109.188h20.987V33.492h26.983V216.508h-26.983v-79.68Z"/></g><g><path class="cls-3" d="M250,125c0,68.361-54.876,123.904-122.98,124.982v-16.333c59.086-1.076,106.649-49.306,106.649-108.649h-96.874v-16.414h95.641c-7.813-51.581-51.886-91.26-105.417-92.235V.018c68.104,1.078,122.98,56.621,122.98,124.982Z"/><path class="cls-2" d="M136.795,108.586h79.01c-1.194-6.679-3.131-13.194-5.793-19.49-4.646-10.985-11.301-20.854-19.778-29.331-8.477-8.477-18.346-15.131-29.331-19.778-6.295-2.662-12.811-4.599-19.49-5.793-4.722-.848-9.528-1.326-14.394-1.427-.672-.015-1.346-.023-2.02-.023s-1.349,.008-2.02,.023c-4.866,.101-9.672,.578-14.394,1.427-6.679,1.194-13.194,3.131-19.49,5.793-10.985,4.646-20.854,11.301-29.331,19.778-8.477,8.477-15.131,18.346-19.778,29.331-4.806,11.361-7.242,23.442-7.242,35.904s2.437,24.543,7.242,35.904c4.646,10.985,11.301,20.854,19.778,29.331,8.477,8.477,18.346,15.131,29.331,19.778,6.295,2.662,12.811,4.599,19.49,5.793,4.722,.848,9.528,1.326,14.394,1.427,.672,.015,1.346,.023,2.02,.023s1.349-.008,2.02-.023c4.866-.101,9.672-.578,14.394-1.427,6.679-1.194,13.194-3.131,19.49-5.793,10.985-4.646,20.854-11.301,29.331-19.778,8.477-8.477,15.131-18.346,19.778-29.331,2.662-6.295,4.598-12.811,5.793-19.49h-79.01v-32.828Zm-13.816-92.235V.018C54.876,1.096,0,56.639,0,125s54.876,123.904,122.98,124.982v-16.333c-59.086-1.076-106.649-49.306-106.649-108.649S63.894,17.427,122.98,16.351Z"/><path class="cls-1" d="M233.669,125c0,59.343-47.563,107.573-106.649,108.649v16.333l-2.02,.018-2.02-.018v-16.333c-59.086-1.076-106.649-49.306-106.649-108.649S63.894,17.427,122.98,16.351V.018c.672-.013,1.346-.018,2.02-.018s1.349,.005,2.02,.018V16.351c53.53,.975,97.604,40.654,105.417,92.235h-16.631c-1.194-6.679-3.131-13.194-5.793-19.49-4.646-10.985-11.301-20.854-19.778-29.331-8.477-8.477-18.346-15.131-29.331-19.778-6.295-2.662-12.811-4.599-19.49-5.793-4.722-.848-9.528-1.326-14.394-1.427-.672-.015-1.346-.023-2.02-.023s-1.349,.008-2.02,.023c-4.866,.101-9.672,.578-14.394,1.427-6.679,1.194-13.194,3.131-19.49,5.793-10.985,4.646-20.854,11.301-29.331,19.778-8.477,8.477-15.131,18.346-19.778,29.331-4.806,11.361-7.242,23.442-7.242,35.904s2.437,24.543,7.242,35.904c4.646,10.985,11.301,20.854,19.778,29.331,8.477,8.477,18.346,15.131,29.331,19.778,6.295,2.662,12.811,4.599,19.49,5.793,4.722,.848,9.528,1.326,14.394,1.427,.672,.015,1.346,.023,2.02,.023s1.349-.008,2.02-.023c4.866-.101,9.672-.578,14.394-1.427,6.679-1.194,13.194-3.131,19.49-5.793,10.985-4.646,20.854-11.301,29.331-19.778,8.477-8.477,15.131-18.346,19.778-29.331,2.662-6.295,4.598-12.811,5.793-19.49h-79.01v-16.414h96.874Z"/></g></svg>